<svg width="279" height="450" viewBox="0 0 279 450" fill="none" xmlns="http://www.w3.org/2000/svg">
<path fill-rule="evenodd" clip-rule="evenodd" d="M278.228 133.554C279.381 127.054 278.496 120.357 275.694 114.38L230.708 18.4173C225.44 7.1783 214.147 1.12545e-05 201.734 1.03659e-05L77.2661 0C64.8534 0 53.5605 7.17829 48.2918 18.4173L3.30598 114.38C0.50409 120.357 -0.380824 127.054 0.772515 133.554L52.2393 423.591C54.9503 438.869 68.2308 450 83.7471 450H195.253C210.769 450 224.05 438.869 226.761 423.591L278.228 133.554ZM223.597 253.466C209.194 242.352 197.145 227.768 186.857 211.446C193.911 211.792 201.553 211.446 210.664 209.363C217.13 207.975 218.894 197.556 213.015 193.387C200.378 184.01 189.797 171.857 180.978 158.314H180.979C184.8 158.314 188.62 158.314 193.03 157.273C199.496 156.231 201.552 145.813 196.263 141.646C170.102 121.158 154.524 85.737 146.587 62.4703C144.236 55.1766 135.418 55.1766 133.066 62.4703C125.131 85.737 109.554 121.158 83.6878 141.994C78.3982 146.16 80.4545 156.579 86.921 157.62C91.329 158.315 95.1509 158.661 98.9724 158.661C89.8613 171.858 79.2796 184.36 66.9353 193.734C61.3503 197.901 62.8205 207.973 69.287 209.71C78.1052 211.793 86.0416 212.488 93.0942 211.793C82.8058 228.114 70.7566 242.699 56.3538 253.813C51.0643 257.98 52.239 267.702 58.4123 269.439C86.9105 277.929 106.008 275.146 118.521 273.322C120.849 272.983 122.949 272.677 124.839 272.483L122.176 331.91C122.125 333.049 123.034 334 124.174 334H156.36C157.499 334 158.409 333.049 158.358 331.91L155.695 272.483C157.576 272.676 159.672 272.98 161.997 273.317C174.569 275.141 193.844 277.937 222.122 269.439C227.712 267.356 228.887 257.632 223.597 253.466Z" fill="white"/>
</svg>
